<svg xmlns="http://www.w3.org/2000/svg" style="width:0; height:0; visibility:hidden;">
    <symbol id="icon_github-logo" viewBox="0 0 1000 1000">
       <path d="M984.3,512c0,106.8-31.2,202.8-93.5,288.1C828.5,885.3,748,944.3,649.3,977.1c-11.5,2.1-19.9,0.6-25.2-4.5s-8-11.5-8-19.1V818.9c0-41.3-11.1-71.5-33.2-90.6c24.2-2.6,46-6.4,65.4-11.5c19.4-5.1,39.3-13.4,60-24.9c20.6-11.5,37.9-25.6,51.7-42.4c13.8-16.8,25.1-39.1,33.8-67c8.7-27.9,13.1-59.9,13.1-96c0-51.5-16.8-95.3-50.4-131.4c15.7-38.7,14-82.1-5.1-130.2c-11.9-3.8-29.1-1.5-51.7,7c-22.5,8.5-42.1,17.9-58.7,28.1l-24.2,15.3c-39.6-11.1-80.4-16.6-122.5-16.6c-42.1,0-82.9,5.5-122.5,16.6c-6.8-4.7-15.8-10.4-27.1-17.2c-11.3-6.8-29-15-53.3-24.6c-24.2-9.6-42.5-12.4-54.9-8.6c-18.7,48.1-20.2,91.4-4.5,130.2c-33.6,36.2-50.4,80-50.4,131.4c0,36.2,4.4,68.1,13.1,95.7c8.7,27.6,19.9,50,33.5,67c13.6,17,30.7,31.3,51.4,42.7c20.6,11.5,40.6,19.8,60,24.9c19.4,5.1,41.2,8.9,65.4,11.5c-17,15.3-27.4,37.2-31.3,65.7c-8.9,4.3-18.5,7.4-28.7,9.6c-10.2,2.1-22.3,3.2-36.4,3.2c-14,0-28-4.6-41.8-13.7c-13.8-9.1-25.6-22.4-35.4-39.9c-8.1-13.6-18.4-24.7-30.9-33.2c-12.5-8.5-23.1-13.6-31.6-15.3l-12.8-1.9c-8.9,0-15.1,1-18.5,2.9c-3.4,1.9-4.5,4.4-3.2,7.3c1.3,3,3.2,6,5.7,8.9c2.6,3,5.3,5.5,8.3,7.7l4.5,3.2c9.4,4.3,18.6,12.3,27.8,24.2c9.1,11.9,15.8,22.8,20.1,32.5l6.4,14.7c5.5,16.2,14.9,29.2,28.1,39.2c13.2,10,27.4,16.4,42.7,19.1c15.3,2.8,30.1,4.3,44.3,4.5s26.1-0.5,35.4-2.2l14.7-2.6c0,16.2,1.1,35.1,3.2,56.8c2.1,21.7,3.2,33.2,3.2,34.5c0,7.7-2.8,14-8.3,19.1c-5.5,5.1-14,6.6-25.5,4.5c-98.7-32.8-179.2-91.8-241.5-177.1S10,618.7,10,512c0-88.9,21.9-170.9,65.7-246C119.5,190.9,179,131.5,254,87.7C329.1,43.9,411.1,22,500,22c88.9,0,170.9,21.9,246,65.7C821,131.5,880.5,190.9,924.3,266c43.8,75.1,65.7,157.1,65.7,246H984.3z"/> 
    </symbol>
    <symbol id="icon_gmail-logo" viewBox="0 0 1000 1000">
       <path d="M990,865.8V134.2H10v731.6H990L990,865.8L990,865.8z M849.5,715.9v142.3H161.6V723.5h1.2l3.5-1.2l258.3-208l78.1,66.2l69.4-60.9L849.5,715.9L849.5,715.9L849.5,715.9z M849.5,690.7L586.6,506.7l262.9-227.9V690.7L849.5,690.7L849.5,690.7z M805.8,141.8L499.1,435.3L203,140.6L805.8,141.8L805.8,141.8L805.8,141.8z M409.3,501.5l-247.8,198l0.6-408.3L409.3,501.5L409.3,501.5L409.3,501.5z"/> 
    </symbol>
    <symbol id="icon_mouse" viewBox="0 0 1000 1000">
       <g transform="translate(0.000000,512.000000) scale(0.100000,-0.100000)"><path d="M3625.8,4999.1c-28.7-28.7-30.6-67-3.8-82.3c11.5-7.7,82.3-28.7,157-49.8c371.4-103.4,681.4-373.3,876.7-763.8c168.4-335,250.8-677.6,296.7-1219.3l11.5-139.7h-76.6c-95.7,0-135.9-38.3-135.9-132.1v-72.7l-281.4-11.5c-193.3-7.7-335-23-446-51.7c-193.3-47.9-476.6-178-639.3-294.8c-134-95.7-379-344.6-465.2-470.9c-151.2-224-273.7-541.7-310.1-811.6c-28.7-204.8-28.7-3838,0-4042.8c112.9-817.4,756.1-1473.9,1577.3-1606c245-40.2,1383.9-40.2,1630.9,0c687.2,111,1248,581.9,1487.3,1250c105.3,294.8,107.2,327.3,107.2,2371.7c0,1244.2-7.7,1929.5-21,2027.1c-55.5,398.2-225.9,744.6-514.9,1049c-178,185.7-325.4,292.9-558.9,403.9c-246.9,116.8-446,162.7-765.7,176.1c-283.3,11.5-281.4,11.5-283.3,134c0,49.8-51.7,82.3-130.2,82.3h-55.5l-13.4,187.6c-40.2,570.4-202.9,1112.1-434.5,1452.9c-204.8,298.6-482.4,501.5-821.2,601.1C3668,5027.8,3656.5,5029.7,3625.8,4999.1z M4942.8,1741.2v-524.5l-51.7-13.4c-91.9-21.1-189.5-103.4-243.1-199.1c-45.9-88.1-49.8-109.1-49.8-344.6V408.9h-871h-871v216.3c0,245,28.7,400.1,112.9,616.4c153.1,398.2,505.3,752.3,913.1,916.9c199.1,80.4,354.1,103.4,721.6,105.3l338.8,1.9V1741.2z M5850.1,2236.9c310.1-65.1,576.2-208.6,805.9-438.3c335-333.1,488.1-704.4,488.1-1181.1V408.9h-871h-871v245c0,224-3.8,252.7-47.9,342.7c-51.7,101.4-149.3,183.8-243.1,206.7l-53.6,13.4v524.5v524.5h325.4C5599.4,2265.7,5756.3,2256.1,5850.1,2236.9z M5090.2,918.1l53.6-45.9l5.7-518.8c5.8-564.7-1.9-620.2-101.4-645.1c-76.6-19.1-139.7,7.6-172.3,70.8c-26.8,47.9-28.7,134-24.9,574.2l5.7,518.8l53.6,45.9c28.7,24.9,70.8,45.9,90,45.9C5019.4,964,5061.5,942.9,5090.2,918.1z M4598.3-2.7c0-174.2,7.7-260.3,28.7-312c122.5-291,522.6-329.2,708.2-65.1c55.5,82.3,57.4,88.1,63.2,350.3l7.7,266.1h869h869v-1644.3c0-1343.8-5.7-1671.1-26.8-1787.9c-124.4-643.2-645.1-1163.8-1290.2-1288.3c-201-38.3-1452.9-38.3-1653.9,0C3534-4361.3,3021-3854,2885.1-3208.9c-24.9,114.9-28.7,398.2-28.7,1791.7V236.6h871h871V-2.7z"/></g> 
    </symbol>
    <symbol id="icon_skype-logo" viewBox="0 0 1000 1000">
       <path d="M281.1,91.6c35.7,0,70.7,10,101.1,28.8l26.3,16.3l30.6-5.1c21.7-3.8,43.9-5.6,66.1-5.6c103.4,0,200.4,39.6,273.1,111.6C850.9,309.1,891,404.3,891,505.4c0,27.3-3.1,54.6-8.9,81.2l-6.4,28.3l13,26c13,25.8,19.7,53.4,19.7,82.2c0,102.4-85,185.6-189.4,185.6c-31.9,0-62-7.4-89.9-22.2l-25-13.3l-27.8,5.1c-23.2,4.3-47.2,6.4-71,6.4c-103.4,0-200.4-39.6-273.1-111.6c-72.5-71.5-112.6-166.7-112.6-267.8c0-25.5,2.6-51.3,7.7-76.3l6.4-31.1l-16.3-27.3c-16.6-28.3-25.5-60.5-25.5-93.4C91.7,174.8,176.7,91.6,281.1,91.6 M281.1,9.9C131.5,9.9,10,129.6,10,277.1c0,49.5,13.5,95.7,37.3,135.3c-6.1,29.9-9.4,61-9.4,92.7c0,254.8,209.3,461,467.4,461c29.4,0,57.9-2.6,85.5-7.7c38.3,20.2,81.9,31.7,128.1,31.7c149.8,0,271.1-119.7,271.1-267.3c0-42.6-10.2-83-28.3-118.7c7.1-31.9,10.7-64.8,10.7-98.8c0-254.5-209.3-461-467.7-461c-27.3,0-53.9,2.3-79.9,6.6C383.5,24.9,334.2,9.9,281.1,9.9L281.1,9.9z"/> <path d="M744.9,724.9c-21.7,30.1-53.6,54.1-95,71c-41.1,16.8-90.1,25.3-146.3,25.3c-67.1,0-123.3-11.7-167.5-34.7c-31.4-16.8-57.2-39.3-77.1-67.4c-19.9-28.1-29.9-56.2-29.9-83.2c0-16.8,6.6-31.4,19.4-43.7c12.8-11.7,29.4-17.9,48.8-17.9c16.1,0,29.9,4.6,41.1,14c10.7,8.9,19.9,22.2,27.3,39.6c8.4,18.6,17.4,34.5,27.1,47c9.2,12,22.2,22,39.1,29.9c17.1,7.9,39.8,12,67.9,12c38.5,0,70.2-8.2,93.9-24.3c23.5-15.6,34.7-34.5,34.7-57.4c0-18.1-5.9-32.4-18.1-43.7c-12.8-11.7-29.4-20.9-50-27.1c-21.2-6.6-50-13.5-85.8-20.9c-48.5-10.2-89.6-22.5-122.5-36.3c-33.4-14-60.5-33.7-80.4-57.9c-19.1-24.5-29.4-55.7-29.4-92.2c0-35,10.7-66.1,31.7-93.2c20.9-26.8,51.3-47.7,90.9-62c38.8-14.3,85-21.4,137.1-21.4c41.9,0,78.4,4.9,109,14c30.9,9.4,56.7,22.2,77.3,38c20.4,15.8,35.7,32.7,45.4,50.3c9.7,17.9,14.6,35.5,14.6,52.6c0,16.3-6.4,31.4-19.1,44.4c-12.8,13-28.8,19.9-48,19.9c-17.4,0-30.9-4.1-40.3-12.3c-8.7-7.7-17.9-19.4-27.8-36.5c-11.7-21.7-25.8-39.1-41.9-51.3c-15.8-11.7-41.9-17.9-78.1-17.9c-33.4,0-60.8,6.6-80.9,19.7c-19.4,12.5-28.8,27.1-28.8,44.2c0,10.5,3.1,19.1,9.4,26.8c6.6,7.9,15.8,15.1,27.8,20.9c12.3,6.1,25,11,37.5,14.3c13,3.6,34.7,8.9,64.6,15.6c38,7.9,72.8,17.1,103.4,26.5c31.1,10,57.9,22,79.9,36c22.5,14.3,40.1,32.9,52.8,54.9c12.5,22,18.9,49.5,18.9,81.2C777.6,660.1,766.6,694.8,744.9,724.9z"/> 
    </symbol></svg>