<svg xmlns="http://www.w3.org/2000/svg" viewBox="0 0 1000 1000">
	<g transform="translate(0.000000,512.000000) scale(0.100000,-0.100000)"><path d="M3625.8,4999.1c-28.7-28.7-30.6-67-3.8-82.3c11.5-7.7,82.3-28.7,157-49.8c371.4-103.4,681.4-373.3,876.7-763.8c168.4-335,250.8-677.6,296.7-1219.3l11.5-139.7h-76.6c-95.7,0-135.9-38.3-135.9-132.1v-72.7l-281.4-11.5c-193.3-7.7-335-23-446-51.7c-193.3-47.9-476.6-178-639.3-294.8c-134-95.7-379-344.6-465.2-470.9c-151.2-224-273.7-541.7-310.1-811.6c-28.7-204.8-28.7-3838,0-4042.8c112.9-817.4,756.1-1473.9,1577.3-1606c245-40.2,1383.9-40.2,1630.9,0c687.2,111,1248,581.9,1487.3,1250c105.3,294.8,107.2,327.3,107.2,2371.7c0,1244.2-7.7,1929.5-21,2027.1c-55.5,398.2-225.9,744.6-514.9,1049c-178,185.7-325.4,292.9-558.9,403.9c-246.9,116.8-446,162.7-765.7,176.1c-283.3,11.5-281.4,11.5-283.3,134c0,49.8-51.7,82.3-130.2,82.3h-55.5l-13.4,187.6c-40.2,570.4-202.9,1112.1-434.5,1452.9c-204.8,298.6-482.4,501.5-821.2,601.1C3668,5027.8,3656.5,5029.7,3625.8,4999.1z M4942.8,1741.2v-524.5l-51.7-13.4c-91.9-21.1-189.5-103.4-243.1-199.1c-45.9-88.1-49.8-109.1-49.8-344.6V408.9h-871h-871v216.3c0,245,28.7,400.1,112.9,616.4c153.1,398.2,505.3,752.3,913.1,916.9c199.1,80.4,354.1,103.4,721.6,105.3l338.8,1.9V1741.2z M5850.1,2236.9c310.1-65.1,576.2-208.6,805.9-438.3c335-333.1,488.1-704.4,488.1-1181.1V408.9h-871h-871v245c0,224-3.8,252.7-47.9,342.7c-51.7,101.4-149.3,183.8-243.1,206.7l-53.6,13.4v524.5v524.5h325.4C5599.4,2265.7,5756.3,2256.1,5850.1,2236.9z M5090.2,918.1l53.6-45.9l5.7-518.8c5.8-564.7-1.9-620.2-101.4-645.1c-76.6-19.1-139.7,7.6-172.3,70.8c-26.8,47.9-28.7,134-24.9,574.2l5.7,518.8l53.6,45.9c28.7,24.9,70.8,45.9,90,45.9C5019.4,964,5061.5,942.9,5090.2,918.1z M4598.3-2.7c0-174.2,7.7-260.3,28.7-312c122.5-291,522.6-329.2,708.2-65.1c55.5,82.3,57.4,88.1,63.2,350.3l7.7,266.1h869h869v-1644.3c0-1343.8-5.7-1671.1-26.8-1787.9c-124.4-643.2-645.1-1163.8-1290.2-1288.3c-201-38.3-1452.9-38.3-1653.9,0C3534-4361.3,3021-3854,2885.1-3208.9c-24.9,114.9-28.7,398.2-28.7,1791.7V236.6h871h871V-2.7z"/></g>
</svg>
